<svg id="footer_minus" xmlns="http://www.w3.org/2000/svg" viewBox="0 0 130 130"><defs><style>.cls-1{fill:#fff;}</style></defs><path class="cls-1" d="M73,128.63H57a11.57,11.57,0,0,0-2.2-.91c-25-4.77-41.83-19.2-50.19-43.18C2.73,79.14,2.17,73.28,1,67.63v-5c.28-1.44.65-2.87.83-4.33C5.39,28.12,28.48,4.86,58,1.73a63.34,63.34,0,0,1,67.27,43.5c1.83,5.6,2.5,11.59,3.7,17.4v5c-.29,1.44-.68,2.87-.86,4.33-2.75,21.57-13.41,38.09-32.46,48.48C88.7,124.24,80.59,126,73,128.63Zm37-70.78H20.14V72.21H110Z"/><path d="M110,57.85V72.21H20.14V57.85Z"/></svg>