<svg id="pinterest" xmlns="http://www.w3.org/2000/svg" viewBox="0 0 411 411">
    <path d="M.78,231.06q0-25.6,0-51.19c1-2.88,2.59-5.67,3.08-8.64,15.33-92.6,94.09-164,187.6-170,102.89-6.6,195.62,64.26,215,164.29C426.13,267.41,367.61,367.59,269.19,400c-12.46,4.1-25.36,6.87-38.06,10.25H179.94c-2.34-1-4.58-2.46-7-2.92C93.06,392.39,39.62,346.2,11.58,270.42,6.87,257.71,4.32,244.2.78,231.06Zm32-25.52c0,95,78.13,172.87,173.19,172.64,94.32-.22,171.9-77.69,172.24-172,.34-95.09-77.39-173.28-172.39-173.44S32.78,110.52,32.82,205.54Z"/>
    <path d="M157.69,223.85c-25-9.94-30.47-26.16-31.59-44.37-2.22-36.37,27.8-68.65,69-75.09,41.81-6.54,79.19,14.63,87.6,51.16,6.75,29.33-.15,56.29-21,78.31C242.43,254.14,217,255.78,194.43,240l-28,67.29-8.34-2c1.38-16.95,1.74-34,4.36-50.8,4-25.46,15.29-49.65,10.52-76.68-1.17-6.65,3.07-16.21,8-21.38,4.14-4.33,14.21-7.27,19.29-5.15,4.82,2,9.47,11.58,9.07,17.48-.82,12-6.25,23.7-7.49,35.75-.72,7,.78,17.63,5.34,20.82,5.61,3.92,16.64,4.55,23.24,1.72,21.37-9.16,32.81-56.25,20.78-80-11.28-22.27-43.53-30.55-70.28-18-26.91,12.58-38.29,43.25-26.79,69.67C156.88,205,156.25,212.83,157.69,223.85Z"/>
</svg>