<svg id="footer_plus" xmlns="http://www.w3.org/2000/svg" viewBox="0 0 130 130"><defs><style>.cls-1{fill:#fff;}</style></defs><path class="cls-1" d="M129,58V72a16.42,16.42,0,0,0-1,2.72c-4.57,25.28-19.1,42.15-43.12,50.88-4.15,1.51-8.58,2.28-12.88,3.4H58a16.35,16.35,0,0,0-2.72-1C30,123.43,13.14,108.88,4.39,84.88,2.88,80.72,2.11,76.3,1,72V58a16.32,16.32,0,0,0,1-2.72C6.55,30,21.1,13.13,45.12,4.39,49.28,2.88,53.7,2.11,58,1H72a16.3,16.3,0,0,0,2.72,1C100,6.56,116.85,21.13,125.61,45.13,127.12,49.28,127.89,53.7,129,58ZM74.11,74.1c9.1,0,17.42.11,25.73,0,6.44-.12,10.36-4.83,9.33-10.8-.77-4.48-4.42-7.29-9.85-7.34-8.27-.08-16.53,0-25.24,0,0-8.89.1-17.18,0-25.47-.1-6.42-4.24-10.26-10-9.69-4.82.48-8,4.16-8.08,9.7-.1,8.41,0,16.82,0,25.46-9.11,0-17.42-.12-25.73,0-6.41.12-10.38,4.9-9.33,10.84.79,4.5,4.34,7.23,9.88,7.29,8.26.09,16.53,0,25.18,0,0,8.6,0,16.56,0,24.52,0,6.78,3.44,10.71,9.12,10.7s9-3.91,9.07-10.74C74.14,90.6,74.11,82.65,74.11,74.1Z"/><path d="M74.11,74.1c0,8.55,0,16.51,0,24.46,0,6.83-3.37,10.73-9.07,10.74s-9.08-3.91-9.12-10.7c0-8,0-15.92,0-24.52-8.65,0-16.92.07-25.18,0-5.54-.06-9.08-2.79-9.88-7.29-1-5.94,2.92-10.72,9.33-10.84,8.31-.16,16.63,0,25.73,0,0-8.63-.08-17,0-25.46.07-5.54,3.26-9.22,8.08-9.7,5.81-.58,9.94,3.26,10,9.69.13,8.29,0,16.58,0,25.47,8.71,0,17-.06,25.24,0,5.43.05,9.08,2.86,9.85,7.34,1,6-2.9,10.69-9.33,10.8C91.52,74.21,83.21,74.1,74.11,74.1Z"/></svg>