<svg id="instagram" xmlns="http://www.w3.org/2000/svg" viewBox="0 0 110 110">
    <path d="M55.14,1A54,54,0,1,1,1,54.84,54,54,0,0,1,55.14,1ZM6.22,54.81a49.06,49.06,0,0,0,48.46,49c26.78.24,49.14-22,49.09-48.84A49.06,49.06,0,0,0,55.05,6.22,49.05,49.05,0,0,0,6.22,54.81Z"/>
    <path d="M55.25,29c5.33,0,10.66-.09,16,0,6.11.12,9.64,3.53,9.71,9.63q.19,16.48,0,33c-.08,5.8-3.65,9.3-9.46,9.36q-16.48.18-33,0c-5.83-.07-9.36-3.55-9.44-9.38q-.21-16.73,0-33.46c.08-5.5,3.68-9,9.19-9.1S49.59,29,55.25,29ZM34.31,49.64c0,7.58,0,14.55,0,21.52,0,3,1.71,4.6,4.7,4.61,10.65,0,21.3.16,31.93-.15,1.57,0,4.33-2.2,4.4-3.5.43-7.4.21-14.83.21-22.48H67.73C68.66,61.22,64.08,67.85,55.26,68c-9.06.17-13.83-6.45-13-18.38Zm20.06-.29c-3.54-.55-7.05.08-7.2,5.46a8,8,0,0,0,8,7.93A8.13,8.13,0,0,0,62.84,55C62.93,50.67,61.15,49.35,54.37,49.35ZM72.7,44V36.53H65.28V44Z"/>
</svg>