<svg xmlns="http://www.w3.org/2000/svg"><symbol id="arrow_up" viewBox="0 0 100 70"><path d="M90 48.6l-28.2-27-11.6-11.3-11.8 11.3-28 27L22 60l28-27 28 27 12-11.6"/></symbol><symbol id="bars" viewBox="0 0 130 108.56"><path d="M1 11.28c2.82-4.07 6.69-5.12 11.57-5.09q52.43.26 104.86 0c4.88 0 8.76 1 11.57 5.09v6c-2.82 4.06-6.69 5.12-11.57 5.09q-52.42-.26-104.85 0c-4.89 0-8.74-1.05-11.58-5.09zm128 46c-2.82 4.06-6.69 5.12-11.57 5.09q-52.43-.26-104.85 0c-4.89 0-8.76-1-11.57-5.09v-6c2.8-4.11 6.68-5.12 11.56-5.09q52.43.26 104.87 0c4.88 0 8.76 1 11.57 5.09zm0 40c-2.82 4.06-6.69 5.12-11.57 5.09q-52.43-.26-104.85 0c-4.89 0-8.76-1-11.57-5.09v-6c2.8-4.11 6.68-5.12 11.56-5.09q52.43.26 104.87 0c4.88 0 8.76 1 11.57 5.09z"/></symbol><symbol id="facebook" viewBox="0 0 130 130"><path d="M57 1h16a22.4 22.4 0 0 0 2.76.93c26.06 5.27 42.91 20.75 50.92 46 .94 3 1.55 6.05 2.32 9.08V73a21.12 21.12 0 0 0-.95 2.74q-7.88 38.73-45.51 50.76c-3.13 1-6.36 1.68-9.54 2.51H57a11.18 11.18 0 0 0-2.19-.91C29.87 123.4 13.13 109 4.38 85.31 2.91 81.33 2.11 77.11 1 73V57a11.59 11.59 0 0 0 .9-2.21C6.56 29.83 21 13.13 44.68 4.36 48.66 2.89 52.89 2.1 57 1zm7.81 7.8a56.19 56.19 0 1 0 56.38 56 56 56 0 0 0-56.38-56z"/><path d="M78.76 36v10c-9.38 1.63-9.38 1.63-8.65 8.91 1.36.1 2.79.24 4.22.3s2.62 0 4.65 0l-1.05 9.6-8.15.41v27.59H57.35V65.44l-6.06-.73v-9.15l5.42-.64c1-5.38-1.23-12.66 5-15.57C66.63 37 72.69 37.06 78.76 36z"/></symbol><symbol id="facebook_bg" viewBox="0 0 30 65.25"><path d="M1.13 22.38l5.21-.59C9 3.13 11.44 1.07 28.52 3.07v9.21c-2.78.58-6.15.43-8.19 2-1.36 1.05-.84 4.55-1.21 7.39 2 .18 3.42.32 4.84.42s2.93.15 4.91.25l-1 10.26-8.48.54V62.8H7V33.31l-5.91-.73z"/></symbol><symbol id="footer_minus" viewBox="0 0 130 130"><path class="cls-1" d="M73 128.63H57a11.57 11.57 0 0 0-2.2-.91c-25-4.77-41.83-19.2-50.19-43.18C2.73 79.14 2.17 73.28 1 67.63v-5c.28-1.44.65-2.87.83-4.33C5.39 28.12 28.48 4.86 58 1.73a63.34 63.34 0 0 1 67.27 43.5c1.83 5.6 2.5 11.59 3.7 17.4v5c-.29 1.44-.68 2.87-.86 4.33-2.75 21.57-13.41 38.09-32.46 48.48-6.95 3.8-15.06 5.56-22.65 8.19zm37-70.78H20.14v14.36H110z"/><path d="M110 57.85v14.36H20.14V57.85z"/></symbol><symbol id="footer_minus_1" viewBox="0 0 417 33"><path d="M.77 32.2V.8h415.46v31.4z"/></symbol><symbol id="footer_plus" viewBox="0 0 130 130"><path class="cls-1" d="M129 58v14a16.42 16.42 0 0 0-1 2.72c-4.57 25.28-19.1 42.15-43.12 50.88-4.15 1.51-8.58 2.28-12.88 3.4H58a16.35 16.35 0 0 0-2.72-1C30 123.43 13.14 108.88 4.39 84.88 2.88 80.72 2.11 76.3 1 72V58a16.32 16.32 0 0 0 1-2.72C6.55 30 21.1 13.13 45.12 4.39 49.28 2.88 53.7 2.11 58 1h14a16.3 16.3 0 0 0 2.72 1c25.28 4.56 42.13 19.13 50.89 43.13 1.51 4.15 2.28 8.57 3.39 12.87zM74.11 74.1c9.1 0 17.42.11 25.73 0 6.44-.12 10.36-4.83 9.33-10.8-.77-4.48-4.42-7.29-9.85-7.34-8.27-.08-16.53 0-25.24 0 0-8.89.1-17.18 0-25.47-.1-6.42-4.24-10.26-10-9.69-4.82.48-8 4.16-8.08 9.7-.1 8.41 0 16.82 0 25.46-9.11 0-17.42-.12-25.73 0-6.41.12-10.38 4.9-9.33 10.84.79 4.5 4.34 7.23 9.88 7.29 8.26.09 16.53 0 25.18 0v24.52c0 6.78 3.44 10.71 9.12 10.7s9-3.91 9.07-10.74c-.05-7.97-.08-15.92-.08-24.47z"/><path d="M74.11 74.1v24.46c0 6.83-3.37 10.73-9.07 10.74s-9.08-3.91-9.12-10.7V74.08c-8.65 0-16.92.07-25.18 0-5.54-.06-9.08-2.79-9.88-7.29-1-5.94 2.92-10.72 9.33-10.84 8.31-.16 16.63 0 25.73 0 0-8.63-.08-17 0-25.46.07-5.54 3.26-9.22 8.08-9.7 5.81-.58 9.94 3.26 10 9.69.13 8.29 0 16.58 0 25.47 8.71 0 17-.06 25.24 0 5.43.05 9.08 2.86 9.85 7.34 1 6-2.9 10.69-9.33 10.8-8.24.12-16.55.01-25.65.01z"/></symbol><symbol id="footer_plus_1" viewBox="0 0 300 300"><path d="M128.85 171.36H1.17v-42.51h127.29V1.17h42.69v127.29h127.68v42.69H171.54v127.68h-42.69z"/></symbol><symbol id="instagram" viewBox="0 0 130 130"><path d="M57 1h16a22.4 22.4 0 0 0 2.76.93c26.06 5.27 42.91 20.75 50.92 46 .94 3 1.55 6.05 2.32 9.08V73a21.12 21.12 0 0 0-.95 2.74q-7.88 38.73-45.51 50.76c-3.13 1-6.36 1.68-9.54 2.51H57a11.18 11.18 0 0 0-2.19-.91C29.87 123.4 13.13 109 4.38 85.31 2.91 81.33 2.11 77.11 1 73V57a11.59 11.59 0 0 0 .9-2.21C6.56 29.83 21 13.13 44.68 4.36 48.66 2.89 52.89 2.1 57 1zm8.19 120.18a56.19 56.19 0 1 0-56.4-56 56 56 0 0 0 56.4 56z"/><path d="M36.9 65.08V43.6c0-5.92 1.91-8 7.64-8q20.48-.12 41 0c5.52 0 7.54 2.08 7.56 7.56q.09 21.72 0 43.45c0 5.78-2 7.71-7.9 7.74q-20.23.1-40.45 0c-5.85 0-7.76-2-7.81-7.81-.09-7.15-.04-14.31-.04-21.46zM43 59.6c0 8.72-.13 16.86.14 25 0 1.17 2 3.26 3.06 3.28q18.7.35 37.4 0c1.16 0 3.24-2 3.27-3.07.28-8.27.15-16.55.15-25.11h-4.58C82 73.26 79.31 79.93 71.09 81.87c-18.2 4.31-23.64-6.35-23.64-22.27zm33.3 5.24c-.07-6.66-5.27-12-11.56-11.78s-11.2 5.64-11 12.32c.17 6.44 5.2 11.56 11.31 11.54 6.27-.01 11.3-5.4 11.23-12.08zm10.65-19.06c.53-3.55-.32-5.67-4.58-5.62-3.69 0-5.46 1-5.36 5.07.09 3.47.58 5.68 4.83 5.6 3.64-.08 5.88-.89 5.11-5.05z"/></symbol><symbol id="instagram_bg" viewBox="0 0 62.14 62.07"><path d="M31.06 61c-4.33 0-8.66.15-13 0-9.48-.4-16.65-7.49-16.89-17q-.33-13 0-26A17 17 0 0 1 18.08 1.17q13-.34 26 0A17.06 17.06 0 0 1 61 18.08q.36 13 0 26A17.17 17.17 0 0 1 44 61c-4.28.16-8.61 0-12.94 0zm.2-54.1c-4.33 0-8.66-.1-13 0C11.37 7.12 7 11.27 6.78 18.14c-.23 8.65-.22 17.32 0 26 .15 6.68 4.22 11.1 10.85 11.36 9 .34 18 .34 27 0 6.37-.28 10.5-4.63 10.67-10.98q.35-13.23 0-26.48c-.18-6.82-4.63-10.93-11.56-11.13-4.15-.11-8.32-.02-12.48-.01z"/><path d="M31.14 15.8a15.34 15.34 0 0 1 15.41 15.62 15.5 15.5 0 0 1-31-.16A15.35 15.35 0 0 1 31.14 15.8zM31 41.16a9.88 9.88 0 0 0 10.13-10 10 10 0 0 0-20-.21A9.84 9.84 0 0 0 31 41.16zm21.09-26.37c-2.15 1.76-3.41 3.6-4.65 3.59s-2.54-1.83-3.82-2.86c1.14-1.33 2.07-3.33 3.48-3.75 1.02-.3 2.66 1.52 4.99 3.02z"/></symbol><symbol id="phone" viewBox="0 0 50 64"><path d="M50.286 44.286q0 .964-.357 2.518t-.75 2.446q-.75 1.786-4.357 3.786-3.357 1.821-6.643 1.821-.964 0-1.893-.125t-2.054-.446-1.679-.518-1.982-.732-1.75-.643q-3.5-1.25-6.25-2.964-4.536-2.821-9.429-7.714t-7.714-9.429q-1.714-2.75-2.964-6.25-.107-.321-.643-1.75t-.732-1.982-.518-1.679-.446-2.054T0 16.678q0-3.286 1.821-6.643 2-3.607 3.786-4.357.893-.393 2.446-.75t2.518-.357q.5 0 .75.107.643.214 1.893 2.714.393.679 1.071 1.929t1.25 2.268 1.107 1.911q.107.143.625.893t.768 1.268.25 1.018q0 .714-1.018 1.786t-2.214 1.964-2.214 1.893-1.018 1.643q0 .321.179.804t.304.732.5.857.411.679q2.714 4.893 6.214 8.393t8.393 6.214q.071.036.679.411t.857.5.732.304.804.179q.643 0 1.643-1.018t1.893-2.214 1.964-2.214 1.786-1.018q.5 0 1.018.25t1.268.768.893.625q.893.536 1.911 1.107t2.268 1.25 1.929 1.071q2.5 1.25 2.714 1.893.107.25.107.75z"/></symbol><symbol id="pinterest" viewBox="0 0 130 130"><path d="M57 1h16a22.4 22.4 0 0 0 2.76.93c26.06 5.27 42.91 20.75 50.92 46 .94 3 1.55 6.05 2.32 9.08V73a21.12 21.12 0 0 0-.95 2.74q-7.88 38.73-45.51 50.76c-3.13 1-6.36 1.68-9.54 2.51H57a11.18 11.18 0 0 0-2.19-.91C29.87 123.4 13.13 109 4.38 85.31 2.91 81.33 2.11 77.11 1 73V57a11.59 11.59 0 0 0 .9-2.21C6.56 29.83 21 13.13 44.68 4.36 48.66 2.89 52.89 2.1 57 1zm64.18 64A56.19 56.19 0 1 0 65 121.18 56 56 0 0 0 121.18 65z"/><path d="M61.58 76.46L53 98l-2.48-.6c.33-5.18.35-10.39 1.06-15.52C52.79 73.3 56.7 65.06 54.94 56c-.32-1.63.4-3.64 1.13-5.26 1.35-3 4-5.25 7.09-3.58 1.72.94 3.12 4.26 3 6.41-.22 3.91-2.14 7.72-2.45 11.64-.18 2.26.73 5.69 2.35 6.73s5.3.79 7.26-.33C79.52 68.07 82.5 53.39 79 46c-3.07-6.48-10.78-9.33-18.89-7S46.6 50.07 48 59c.2 1.29 1 2.48 1.21 3.77.46 2.31.73 4.67 1.15 7.54-6.21-1.83-8.81-5.33-9.4-11.44-1-10.28 2.79-18.5 11.76-23.53S71.27 30 80.1 36c8.63 5.92 10.41 14.78 8.52 24.37a33.61 33.61 0 0 1-4.85 11.87c-5.43 8.18-14.29 9.52-22.19 4.22z"/></symbol><symbol id="pinterest_bg" viewBox="0 0 57.77 73.91"><path d="M12.05 43.48C5.53 41.65 3.18 38 1.9 33.54-2.48 18.12 9.63 2.71 27.31 1.4 38.6.57 48.1 4 54 14.34c4.88 8.66 3.11 22.73-3.6 31.07-6.9 8.57-16.48 10-26.22 3.71-2.18 8.49-3.84 17.21-11.76 23.51.29-5.47.24-11 1-16.41.64-4.75 2.48-9.34 3.21-14.09.62-4 .18-8.16.65-12.19.38-3.21.64-6.92 2.42-9.33 1.3-1.82 5.3-3.12 7.49-2.47 1.66.5 3.32 4.45 3.19 6.77-.22 3.9-1.77 7.74-2.92 11.56-1 3.32-.93 6.35 2.19 8.46S36 46.32 39 44.27c6.35-4.4 9.75-18.55 6.44-26.62C42.57 10.74 34.42 7 25.68 8.6 15.94 10.38 9.13 18 9.13 27.65c0 2.39 1.22 4.75 1.68 7.16.49 2.58.76 5.19 1.24 8.67z"/></symbol><symbol id="plus" viewBox="0 0 300 300"><path d="M128.85 171.36H1.17v-42.51h127.29V1.17h42.69v127.29h127.68v42.69H171.54v127.68h-42.69z"/></symbol><symbol id="returns" viewBox="0 0 448 449.52"><path d="M447 224.7c0 122.79-100.75 223.53-223.27 223.14-123-.39-222.64-100.11-222.79-223C.82 102.16 100.85 1.92 223.64 1.67S447 101.86 447 224.7zm-46.82.15c-.37-97.74-79.57-176.63-177-176.34-96.66.29-175.47 79.58-175.31 176.39.16 97.45 79.53 176.53 176.59 176s176.11-79.7 175.75-176.04z"/><path d="M247.08 164.42v66.48c0 12.14-7.82 20.1-20 20.12q-44.74.07-89.48 0c-10.15 0-16.85-5.5-18.48-14.73a16.7 16.7 0 0 1 11.21-18.88 25 25 0 0 1 7.84-1c25.66-.07 51.32-.17 77 .06 4.83 0 6.19-1.34 6.17-6.15q-.27-57-.06-114c0-10.75 9.89-17.11 18.79-12.3 5.28 2.85 7 7.62 7 13.39-.06 22.33 0 44.66 0 67z"/></symbol><symbol id="rss_bg" viewBox="0 0 46.45 46.56"><path d="M45.33 45.56h-8.07C34.87 24.21 23.17 11.91 1.33 9.25v-8c21.83-2.94 46.03 21.26 44 44.31z"/><path d="M30.13 45.48h-8.31c-1.55-12-8.22-19-20.49-20.74v-8.21C16.69 15 31.36 31.06 30.13 45.48zM1 39.59c.26-3.67 2.12-5.92 5.93-6s6 2.28 6.07 5.87a5.62 5.62 0 0 1-5.93 6.08c-3.64.07-5.76-2.16-6.07-5.95z"/></symbol><symbol id="select_arrow_down" viewBox="0 0 48 48"><path d="M14.83 16.42L24 25.59l9.17-9.17L36 19.25l-12 12-12-12z"/><path d="M0-.75h48v48H0z" fill="none"/></symbol><symbol id="shipping" viewBox="0 0 150 150.47"><path d="M.57 100.73c2.73-.38 5.63-1.54 8.16-1 8.33 1.77 16.53 4.16 23.84 6.06L72.4 61.15.63 21.55c.7-1.06 1.16-1.78 1.66-2.49 5.18-7.38 11.14-8.5 20-5.48 22.76 7.7 46 13.89 69 21 3.86 1.19 6.1.54 8.7-2.36 7.2-8.06 14.68-15.86 22.11-23.71a37.18 37.18 0 0 1 5.48-5c6.12-4.24 13.42-3.83 17.98.84a13 13 0 0 1 .63 17.86c-5.54 6.45-11.43 13-18.37 17.78-12.39 8.48-14 17.81-8.63 31.65 7.13 18.38 11.67 37.76 17.35 56.71 3.69 12.3 3.72 12.29-7.94 21.1L88.81 77.31l-44.22 39.52c-.9 10.25 9.92 20.84 4.39 32.75l-2.05.31c-3.17-6.18-6.81-12.17-9.41-18.58-3.7-9.14-9.89-15.13-19-18.82-6.18-2.52-12-6-17.91-9.09z"/></symbol><symbol id="support" viewBox="0 0 50 50"><path d="M49 20v10a28.44 28.44 0 0 1-19 19H20c-9.51-3.16-15.89-9.44-19-19V20A28.18 28.18 0 0 1 20 1h10c9.56 3.11 15.84 9.49 19 19zM25.08 35.15A9.87 9.87 0 0 0 35.15 25a9.87 9.87 0 0 0-10-10.2 9.89 9.89 0 0 0-10.32 10.4 9.87 9.87 0 0 0 10.25 9.95zM15.85 6.64c5.57 7.29 13.64 7.11 18-.1-5.93-2.84-11.73-2.77-18 .1zM6.62 16a19.33 19.33 0 0 0 0 17.89c7.15-4.84 7.15-12.96 0-17.89zm36.82 18c2.7-6.27 2.87-12.06-.07-18-7.16 4.86-7.19 13 .07 18zm-9.22 9.21c-6-7.29-14.11-7-18 .27a20.09 20.09 0 0 0 18-.23z"/></symbol><symbol id="twitter" viewBox="0 0 130 130"><path d="M57 1h16a22.4 22.4 0 0 0 2.76.93c26.06 5.27 42.91 20.75 50.92 46 .94 3 1.55 6.05 2.32 9.08V73a21.12 21.12 0 0 0-.95 2.74q-7.88 38.73-45.51 50.76c-3.13 1-6.36 1.68-9.54 2.51H57a11.18 11.18 0 0 0-2.19-.91C29.87 123.4 13.13 109 4.38 85.31 2.91 81.33 2.11 77.11 1 73V57a11.59 11.59 0 0 0 .9-2.21C6.56 29.83 21 13.13 44.68 4.36 48.66 2.89 52.89 2.1 57 1zm8 7.8A56.19 56.19 0 1 0 121.18 65 55.95 55.95 0 0 0 65 8.8z"/><path d="M38.08 84.69l14.14-4.22-8.92-9L44.86 70l-7.69-11.62 5.72.3c-4-4.68-5.1-9.58-2.64-15.68 6.6 6.75 13.7 12 23.41 12.42a52.2 52.2 0 0 1 1.15-6.31 11.66 11.66 0 0 1 15.49-7.62c3.2 1.22 6.73 1.58 10.23 2.35.2-.45-.11.39-.54 1.16s-.93 1.37-1.73 2.52l2.74-.23c-1.34 4.43-3.11 8.88-4 13.51-4.48 23-27.06 35-47.33 25a15.27 15.27 0 0 1-1.59-1.11z"/></symbol><symbol id="twitter_bg" viewBox="0 0 59.76 51.52"><path d="M1.78 45.82l14.66-4.42-9.5-8.9 1.74-1.57L1 20.15 2.15 19l4.32.75c-4-5-6.15-9.83-2.86-16.07 7 7 14.75 12 24.73 12.39.75-2.9 1.06-5.76 2.2-8.23C33.27 2 40.54-1 46.12 2.15c4 2.3 7.44 2.73 12.64-.12l-4.15 6.38 3.94-.61c-5.64 4.06-4.34 10.39-5.68 15.75-5.71 22.9-31.8 34.26-51.09 22.27z"/></symbol></svg>