<svg xmlns="http://www.w3.org/2000/svg"><symbol id="arrow_up" viewBox="0 0 100 70"><path d="M90 48.6l-28.2-27-11.6-11.3-11.8 11.3-28 27L22 60l28-27 28 27 12-11.6"/></symbol><symbol id="bars" viewBox="0 0 130 108.56"><path d="M1 11.28c2.82-4.07 6.69-5.12 11.57-5.09q52.43.26 104.86 0c4.88 0 8.76 1 11.57 5.09v6c-2.82 4.06-6.69 5.12-11.57 5.09q-52.42-.26-104.85 0c-4.89 0-8.74-1.05-11.58-5.09zm128 46c-2.82 4.06-6.69 5.12-11.57 5.09q-52.43-.26-104.85 0c-4.89 0-8.76-1-11.57-5.09v-6c2.8-4.11 6.68-5.12 11.56-5.09q52.43.26 104.87 0c4.88 0 8.76 1 11.57 5.09zm0 40c-2.82 4.06-6.69 5.12-11.57 5.09q-52.43-.26-104.85 0c-4.89 0-8.76-1-11.57-5.09v-6c2.8-4.11 6.68-5.12 11.56-5.09q52.43.26 104.87 0c4.88 0 8.76 1 11.57 5.09z"/></symbol><symbol id="facebook" viewBox="0 0 130 130"><path d="M57 1h16a22.4 22.4 0 0 0 2.76.93c26.06 5.27 42.91 20.75 50.92 46 .94 3 1.55 6.05 2.32 9.08V73a21.12 21.12 0 0 0-.95 2.74q-7.88 38.73-45.51 50.76c-3.13 1-6.36 1.68-9.54 2.51H57a11.18 11.18 0 0 0-2.19-.91C29.87 123.4 13.13 109 4.38 85.31 2.91 81.33 2.11 77.11 1 73V57a11.59 11.59 0 0 0 .9-2.21C6.56 29.83 21 13.13 44.68 4.36 48.66 2.89 52.89 2.1 57 1zm7.81 7.8a56.19 56.19 0 1 0 56.38 56 56 56 0 0 0-56.38-56z"/><path d="M78.76 36v10c-9.38 1.63-9.38 1.63-8.65 8.91 1.36.1 2.79.24 4.22.3s2.62 0 4.65 0l-1.05 9.6-8.15.41v27.59H57.35V65.44l-6.06-.73v-9.15l5.42-.64c1-5.38-1.23-12.66 5-15.57C66.63 37 72.69 37.06 78.76 36z"/></symbol><symbol id="instagram" viewBox="0 0 110 110"><path d="M55.14 1A54 54 0 1 1 1 54.84 54 54 0 0 1 55.14 1zM6.22 54.81a49.06 49.06 0 0 0 48.46 49c26.78.24 49.14-22 49.09-48.84A49.06 49.06 0 0 0 55.05 6.22 49.05 49.05 0 0 0 6.22 54.81z"/><path d="M55.25 29c5.33 0 10.66-.09 16 0 6.11.12 9.64 3.53 9.71 9.63q.19 16.48 0 33c-.08 5.8-3.65 9.3-9.46 9.36q-16.48.18-33 0c-5.83-.07-9.36-3.55-9.44-9.38q-.21-16.73 0-33.46c.08-5.5 3.68-9 9.19-9.1s11.34-.05 17-.05zM34.31 49.64v21.52c0 3 1.71 4.6 4.7 4.61 10.65 0 21.3.16 31.93-.15 1.57 0 4.33-2.2 4.4-3.5.43-7.4.21-14.83.21-22.48h-7.82c.93 11.58-3.65 18.21-12.47 18.36-9.06.17-13.83-6.45-13-18.38zm20.06-.29c-3.54-.55-7.05.08-7.2 5.46a8 8 0 0 0 8 7.93A8.13 8.13 0 0 0 62.84 55c.09-4.33-1.69-5.65-8.47-5.65zM72.7 44v-7.47h-7.42V44z"/></symbol><symbol id="phone" viewBox="0 0 50 64"><path d="M50.286 44.286q0 .964-.357 2.518t-.75 2.446q-.75 1.786-4.357 3.786-3.357 1.821-6.643 1.821-.964 0-1.893-.125t-2.054-.446-1.679-.518-1.982-.732-1.75-.643q-3.5-1.25-6.25-2.964-4.536-2.821-9.429-7.714t-7.714-9.429q-1.714-2.75-2.964-6.25-.107-.321-.643-1.75t-.732-1.982-.518-1.679-.446-2.054T0 16.678q0-3.286 1.821-6.643 2-3.607 3.786-4.357.893-.393 2.446-.75t2.518-.357q.5 0 .75.107.643.214 1.893 2.714.393.679 1.071 1.929t1.25 2.268 1.107 1.911q.107.143.625.893t.768 1.268.25 1.018q0 .714-1.018 1.786t-2.214 1.964-2.214 1.893-1.018 1.643q0 .321.179.804t.304.732.5.857.411.679q2.714 4.893 6.214 8.393t8.393 6.214q.071.036.679.411t.857.5.732.304.804.179q.643 0 1.643-1.018t1.893-2.214 1.964-2.214 1.786-1.018q.5 0 1.018.25t1.268.768.893.625q.893.536 1.911 1.107t2.268 1.25 1.929 1.071q2.5 1.25 2.714 1.893.107.25.107.75z"/></symbol><symbol id="pinterest" viewBox="0 0 411 411"><path d="M.78 231.06v-51.19c1-2.88 2.59-5.67 3.08-8.64 15.33-92.6 94.09-164 187.6-170 102.89-6.6 195.62 64.26 215 164.29C426.13 267.41 367.61 367.59 269.19 400c-12.46 4.1-25.36 6.87-38.06 10.25h-51.19c-2.34-1-4.58-2.46-7-2.92C93.06 392.39 39.62 346.2 11.58 270.42 6.87 257.71 4.32 244.2.78 231.06zm32-25.52c0 95 78.13 172.87 173.19 172.64 94.32-.22 171.9-77.69 172.24-172 .34-95.09-77.39-173.28-172.39-173.44s-173.04 77.78-173 172.8z"/><path d="M157.69 223.85c-25-9.94-30.47-26.16-31.59-44.37-2.22-36.37 27.8-68.65 69-75.09 41.81-6.54 79.19 14.63 87.6 51.16 6.75 29.33-.15 56.29-21 78.31-19.27 20.28-44.7 21.92-67.27 6.14l-28 67.29-8.34-2c1.38-16.95 1.74-34 4.36-50.8 4-25.46 15.29-49.65 10.52-76.68-1.17-6.65 3.07-16.21 8-21.38 4.14-4.33 14.21-7.27 19.29-5.15 4.82 2 9.47 11.58 9.07 17.48-.82 12-6.25 23.7-7.49 35.75-.72 7 .78 17.63 5.34 20.82 5.61 3.92 16.64 4.55 23.24 1.72 21.37-9.16 32.81-56.25 20.78-80-11.28-22.27-43.53-30.55-70.28-18-26.91 12.58-38.29 43.25-26.79 69.67 2.75 6.28 2.12 14.11 3.56 25.13z"/></symbol><symbol id="plus" viewBox="0 0 300 300"><path d="M128.85 171.36H1.17v-42.51h127.29V1.17h42.69v127.29h127.68v42.69H171.54v127.68h-42.69z"/></symbol><symbol id="returns" viewBox="0 0 448 449.52"><path d="M447 224.7c0 122.79-100.75 223.53-223.27 223.14-123-.39-222.64-100.11-222.79-223C.82 102.16 100.85 1.92 223.64 1.67S447 101.86 447 224.7zm-46.82.15c-.37-97.74-79.57-176.63-177-176.34-96.66.29-175.47 79.58-175.31 176.39.16 97.45 79.53 176.53 176.59 176s176.11-79.7 175.75-176.04z"/><path d="M247.08 164.42v66.48c0 12.14-7.82 20.1-20 20.12q-44.74.07-89.48 0c-10.15 0-16.85-5.5-18.48-14.73a16.7 16.7 0 0 1 11.21-18.88 25 25 0 0 1 7.84-1c25.66-.07 51.32-.17 77 .06 4.83 0 6.19-1.34 6.17-6.15q-.27-57-.06-114c0-10.75 9.89-17.11 18.79-12.3 5.28 2.85 7 7.62 7 13.39-.06 22.33 0 44.66 0 67z"/></symbol><symbol id="select_arrow_down" viewBox="0 0 48 48"><path d="M14.83 16.42L24 25.59l9.17-9.17L36 19.25l-12 12-12-12z"/><path d="M0-.75h48v48H0z" fill="none"/></symbol><symbol id="shipping" viewBox="0 0 150 150.47"><path d="M.57 100.73c2.73-.38 5.63-1.54 8.16-1 8.33 1.77 16.53 4.16 23.84 6.06L72.4 61.15.63 21.55c.7-1.06 1.16-1.78 1.66-2.49 5.18-7.38 11.14-8.5 20-5.48 22.76 7.7 46 13.89 69 21 3.86 1.19 6.1.54 8.7-2.36 7.2-8.06 14.68-15.86 22.11-23.71a37.18 37.18 0 0 1 5.48-5c6.12-4.24 13.42-3.83 17.98.84a13 13 0 0 1 .63 17.86c-5.54 6.45-11.43 13-18.37 17.78-12.39 8.48-14 17.81-8.63 31.65 7.13 18.38 11.67 37.76 17.35 56.71 3.69 12.3 3.72 12.29-7.94 21.1L88.81 77.31l-44.22 39.52c-.9 10.25 9.92 20.84 4.39 32.75l-2.05.31c-3.17-6.18-6.81-12.17-9.41-18.58-3.7-9.14-9.89-15.13-19-18.82-6.18-2.52-12-6-17.91-9.09z"/></symbol><symbol id="support" viewBox="0 0 50 50"><path d="M49 20v10a28.44 28.44 0 0 1-19 19H20c-9.51-3.16-15.89-9.44-19-19V20A28.18 28.18 0 0 1 20 1h10c9.56 3.11 15.84 9.49 19 19zM25.08 35.15A9.87 9.87 0 0 0 35.15 25a9.87 9.87 0 0 0-10-10.2 9.89 9.89 0 0 0-10.32 10.4 9.87 9.87 0 0 0 10.25 9.95zM15.85 6.64c5.57 7.29 13.64 7.11 18-.1-5.93-2.84-11.73-2.77-18 .1zM6.62 16a19.33 19.33 0 0 0 0 17.89c7.15-4.84 7.15-12.96 0-17.89zm36.82 18c2.7-6.27 2.87-12.06-.07-18-7.16 4.86-7.19 13 .07 18zm-9.22 9.21c-6-7.29-14.11-7-18 .27a20.09 20.09 0 0 0 18-.23z"/></symbol><symbol id="twitter" viewBox="0 0 130 130"><path d="M57 1h16a22.4 22.4 0 0 0 2.76.93c26.06 5.27 42.91 20.75 50.92 46 .94 3 1.55 6.05 2.32 9.08V73a21.12 21.12 0 0 0-.95 2.74q-7.88 38.73-45.51 50.76c-3.13 1-6.36 1.68-9.54 2.51H57a11.18 11.18 0 0 0-2.19-.91C29.87 123.4 13.13 109 4.38 85.31 2.91 81.33 2.11 77.11 1 73V57a11.59 11.59 0 0 0 .9-2.21C6.56 29.83 21 13.13 44.68 4.36 48.66 2.89 52.89 2.1 57 1zm8 7.8A56.19 56.19 0 1 0 121.18 65 55.95 55.95 0 0 0 65 8.8z"/><path d="M38.08 84.69l14.14-4.22-8.92-9L44.86 70l-7.69-11.62 5.72.3c-4-4.68-5.1-9.58-2.64-15.68 6.6 6.75 13.7 12 23.41 12.42a52.2 52.2 0 0 1 1.15-6.31 11.66 11.66 0 0 1 15.49-7.62c3.2 1.22 6.73 1.58 10.23 2.35.2-.45-.11.39-.54 1.16s-.93 1.37-1.73 2.52l2.74-.23c-1.34 4.43-3.11 8.88-4 13.51-4.48 23-27.06 35-47.33 25a15.27 15.27 0 0 1-1.59-1.11z"/></symbol></svg>